<?xml version="1.0" encoding="iso-8859-1"?>
<!-- Generator: Adobe Illustrator 19.0.0, SVG Export Plug-In . SVG Version: 6.00 Build 0)  -->
<svg version="1.1" id="Layer_1" xmlns="http://www.w3.org/2000/svg" xmlns:xlink="http://www.w3.org/1999/xlink" x="0px" y="0px"
	 viewBox="0 0 496 496" style="enable-background:new 0 0 496 496;" xml:space="preserve">
<path style="fill:#FFFFFF;" d="M496,369.6c0,27.2-21.6,48.8-48,48.8H48c-26.4,0-48-21.6-48-48.8V126.4c0-27.2,21.6-48.8,48-48.8h400
	c26.4,0,48,21.6,48,48.8V369.6z"/>
<path style="fill:#B71234;" d="M0,343.2v26.4c0,27.2,21.6,48.8,48,48.8h400c26.4,0,48-21.6,48-48.8v-26.4H0z"/>
<path style="fill:#E9F3F4;" d="M48,77.6h400c26.4,0,48,21.6,48,48.8v243.2c0,27.2-21.6,48.8-48,48.8"/>
<path style="fill:#99002C;" d="M448,418.4c26.4,0,48-21.6,48-48.8v-26.4H360L448,418.4z"/>
<path style="fill:#870221;" d="M496,369.6c0,27.2-21.6,48.8-48,48.8H48c-26.4,0-48-21.6-48-48.8"/>
<path style="fill:#D9ECED;" d="M48,77.6h400c26.4,0,48,21.6,48,48.8v88.8"/>
<path style="fill:#B71234;" d="M59.2,173.6l6.4-20.8L48,140h21.6l6.4-20.8l6.4,20.8H104l-17.6,12.8l6.4,20.8l-17.6-12.8L59.2,173.6
	L59.2,173.6z"/>
<g>
	<path style="fill:#008542;" d="M252.8,288.8L252.8,288.8L252.8,288.8z"/>
	<path style="fill:#008542;" d="M458.4,318.4c0-0.8,0-0.8-0.8-0.8s-1.6-0.8-1.6-0.8l-0.8-0.8l-0.8-0.8c0,0,0,0-0.8,0
		c-0.8-0.8-0.8-0.8-1.6-1.6h-0.8c-0.8,0-1.6,0-1.6,0l0,0l0,0c0,0,0-0.8-0.8-0.8l0,0c0,0,0-0.8-0.8-0.8l-0.8-0.8h-0.8c0,0,0,0-0.8,0
		v-0.8c0-0.8,0-0.8-0.8-0.8c0,0-0.8-0.8-0.8,0c0,0-0.8,0-0.8,0.8c0,0,0,0-0.8,0s-0.8,0-0.8,0c0-0.8-0.8-0.8-1.6-1.6c0,0,0,0-0.8,0
		c0,0,0,0-0.8,0s-0.8-0.8-0.8-1.6h-0.8H436l0,0l0,0c0,0,0,0-0.8,0s-0.8,0-0.8,0s0,0-0.8,0c0,0,0,0,0,0.8h-0.8c0,0,0,0-0.8-0.8
		c0,0,0,0-0.8,0c0,0,0,0-0.8,0c0,0,0,0,0-0.8s0-0.8,0-0.8s-0.8,0-0.8,0.8c-0.8,0-0.8-0.8-0.8-1.6l0,0c0,0,0,0-0.8,0l-0.8,0.8
		c0,0,0,0-0.8,0c0,0,0,0,0-0.8V304c0,0,0,0-0.8,0c0,0.8-0.8,1.6-1.6,0.8c0-0.8,0-0.8,0-1.6l0,0v-0.8c0,0,0-0.8-0.8-0.8
		c0,0-0.8,0-0.8,0.8c0,0,0,0.8-0.8,0.8c0,0,0,0-0.8,0l0,0L420,304l0,0c0,0-0.8,0-0.8,0.8c0,0,0,0-0.8-0.8v-0.8v-0.8
		c0,0,0-0.8-0.8-0.8c0,0,0,0,0-0.8c0,0,0,0,0-0.8s0-0.8-0.8-1.6l-0.8,0.8c0,0,0,0.8-0.8,0.8c0,0-0.8,0-0.8-0.8s0-0.8-0.8-0.8
		c0,0,0,0-0.8,0c0,0,0,0,0,0.8v0.8c0,0.8,0,1.6-0.8,1.6c0,0-0.8,0-0.8-0.8l0,0c0-0.8-0.8-0.8-0.8-0.8s-0.8,0-0.8-0.8v-0.8v-0.8l0,0
		c0,0-0.8,0-0.8,0.8c0,0-0.8,0.8-0.8,0H408v-0.8c-0.8-0.8-0.8-0.8-0.8,0.8c0,0.8-0.8,0.8-0.8,0.8l0,0l0,0c0,0,0,0-0.8,0l0,0l0,0
		c0,0-6.4-0.8-14.4-0.8l-14.4-0.8l0,0H376l0,0c0,0,0,0-0.8-0.8h-0.8h-0.8l0,0l0,0l0,0h-0.8l0,0l0,0L372,296l-4-2.4h-0.8h-0.8
		l-0.8-0.8h-0.8l0,0l-0.8,0.8l0,0l-0.8-0.8h-0.8l-0.8-0.8l-0.8-0.8H360h-0.8h-0.8l-0.8-0.8l-0.8,0.8H356h-0.8h-0.8l-0.8,1.6h-2.4
		v-1.6v-0.8l0,0h0.8h-1.6v-0.8v-0.8h-0.8l-0.8,1.6l0,0l0,0v-0.8H348l-0.8,0.8l-0.8,0.8l0,0h-0.8l0,0v-0.8v-0.8h-0.8l-0.8,0.8
		l-1.6,0.8v-0.8v-0.8h-0.8v0.8h-0.8l-0.8-0.8l0,0l0,0l-1.6,1.6l-1.6,0.8H336c0,0-18.4,2.4-29.6,2.4c-10.4,0-9.6-2.4-9.6-2.4
		s0,0,0-0.8s0-0.8,0-0.8v-0.8l0,0l0,0H296c-2.4,0-3.2,0.8-4,1.6l0,0l0,0l0,0c0,0-4.8,0-21.6-0.8c0,0-0.8,0-1.6,0l0,0
		c-0.8,0-1.6-1.6-2.4-0.8c-0.8,0.8-1.6,0-1.6-0.8c-0.8,0-1.6,1.6-2.4,0.8c-0.8-0.8-2.4,0.8-3.2,0c0,0-0.8-1.6-0.8-0.8
		c-0.8,0.8,0-1.6-1.6-1.6c0,0.8-0.8,0.8-0.8,0c0,0,0,0-0.8,0s-0.8,0.8-0.8,0.8c-0.8,0.8-2.4-0.8-2.4,0.8c0,0.8-1.6,0.8-2.4,0.8
		c0-1.6-1.6-0.8-2.4,0c-0.8,0.8-2.4,0-3.2,0s-1.6,0-1.6-0.8c0.8-0.8,0-1.6-0.8-0.8c-0.8,0,0,0.8-0.8,0.8c-0.8,0.8,0-1.6-1.6-0.8
		c0,1.6-2.4,1.6-3.2,1.6s-1.6,0.8-3.2,0.8l0,0H228l-5.6,1.6c-3.2,0.8-5.6,1.6-5.6,1.6c-0.8,0-0.8,0-1.6,0l-36.8,8l-1.6-0.8H176h-0.8
		h-1.6l-0.8-0.8l0,0H172l-0.8,0.8h-0.8h-0.8l-1.6,0.8h-0.8h-0.8h-0.8l0,0v-0.8V300h-0.8l-0.8,0.8l-0.8,0.8h-0.8l-0.8-0.8h-0.8H160
		l0,0l-1.6,1.6l0,0h-0.8h-0.8l0,0l-0.8,0.8l0,0.8l-0.8,0.8h-1.6h-0.8V304h-1.6h-0.8l0,0h0l-0.8-0.8h-0.8H148h-0.8h-0.8v0.8l0,0v0.8
		v0.8h-0.8v0.8v0.8h-0.8H144h-0.8h-0.8l-1.6,0.8H140l0,0h-0.8h-0.8l-0.8-0.8l-0.8-0.8l-0.8,0.8l-1.6,1.6h-0.8V308l-0.8-0.8H132v0.8
		l0,0v-0.8v-0.8l0,0l-0.8,0.8l-0.8,0.8l0,0l0,0v-0.8v-0.8h-0.8v0.8v0.8l0,0v0.8h-0.8l0,0l0,0L128,308h-0.8v0.8l-0.8,0.8L124,312
		h-1.6l-0.8-1.6l0,0l0,0l-0.8,1.6H120h-0.8h-0.8h-0.8l0,0v-0.8l-0.8,0.8v0.8l-1.6,0.8h-1.6l-3.2,1.6h-0.8h-0.8l-1.6,0.8h-0.8
		l-1.6,0.8H104h-0.8h-0.8l-1.6,0.8l-2.4,0.8h-0.8c-0.8,0.8-1.6,0.8-3.2,1.6c0,0-0.8,0-1.6,0c-0.8,0-0.8,0-0.8,0.8v0.8
		c0.8,0.8,2.4,0.8,4,0.8c0,0,0.8,0,1.6,0c5.6,0,9.6-0.8,14.4,0c0.8,0,1.6,0,2.4,0c1.6,0,4,0,5.6,0c0.8,0,0.8,0,1.6,0s1.6,0,2.4,0
		c2.4,0,4,0,4,0c1.6,0.8,4,0.8,5.6,0.8c0,0,0.8,0,4,0c0.8,0,0.8,0,1.6,0c7.2-0.8,12.8-0.8,20-1.6c0.8,0,2.4,0,3.2,0c0,0,0.8,0,3.2,0
		c0.8,0,1.6,0,1.6,0s2.4,0,4,0c6.4,0,12.8,0,19.2,0.8h1.6c5.6,0,10.4,0.8,16,0.8c0.8,0,2.4,0,3.2,0c1.6,0,2.4,0,4,0h0.8
		c4,0.8,8,0.8,12,0.8h1.6c0.8,0,1.6,0,1.6,0c0.8,0,1.6,0,2.4,0c0,0,0.8,0,1.6,0c1.6,0,3.2,0,4.8,0s3.2,0,4.8,0c0.8,0,2.4,0,3.2,0
		c0.8,0,0.8,0,1.6,0h0.8c2.4,0,4-0.8,6.4-0.8c1.6,0,3.2,0,4.8-0.8c1.6,0,4-0.8,5.6-0.8c3.2,0,6.4,0,9.6-0.8c2.4,0,5.6-0.8,7.2-0.8
		c4,0,9.6-0.8,12.8-0.8c0.8,0,2.4,0,3.2,0c1.6,0,3.2,0,4.8,0c2.4,0,5.6-0.8,8-0.8c0,0,0.8,0,1.6,0c0.8,0,1.6,0,2.4,0
		c2.4,0,5.6,0,8,0c0,0,0,0,0.8,0s0.8,0,1.6,0c3.2,0,6.4,0,9.6,0c4.8,0,9.6,0,14.4,0.8c5.6,0,11.2,0,16,0.8c9.6,0.8,17.6,0,25.6,0.8
		c0.8,0,2.4,0,3.2,0c0,0,2.4,0,3.2,0c4.8,0,12-0.8,14.4-0.8s3.2,0,3.2,0c8.8,0,15.2-1.6,24-1.6c3.2-0.8,6.4,0.8,10.4,0h0.8
		c0.8,0,0.8,0,1.6,0c0.8,0,1.6,0,2.4,0C458.4,320,458.4,319.2,458.4,318.4z"/>
</g>
<path style="fill:#004F22;" d="M457.6,316.8c-0.8,0-1.6-0.8-1.6-0.8l-0.8-0.8l-0.8-0.8c0,0,0,0-0.8,0c-0.8-0.8-0.8-0.8-1.6-1.6h-0.8
	c-0.8,0-1.6,0-1.6,0l0,0l0,0c0,0,0-0.8-0.8-0.8l0,0c0,0,0-0.8-0.8-0.8l-0.8-0.8h-0.8c0,0,0,0-0.8,0v-0.8c0-0.8,0-0.8-0.8-0.8
	c0,0-0.8-0.8-0.8,0c0,0-0.8,0-0.8,0.8c0,0,0,0-0.8,0s-0.8,0-0.8,0c0-0.8-0.8-0.8-1.6-1.6c0,0,0,0-0.8,0c0,0,0,0-0.8,0
	s-0.8-0.8-0.8-1.6h-0.8H436l0,0l0,0c0,0,0,0-0.8,0s-0.8,0-0.8,0s0,0-0.8,0c0,0,0,0,0,0.8h-0.8c0,0,0,0-0.8-0.8c0,0,0,0-0.8,0
	c0,0,0,0-0.8,0c0,0,0,0,0-0.8s0-0.8,0-0.8s-0.8,0-0.8,0.8c-0.8,0-0.8-0.8-0.8-1.6l0,0c0,0,0,0-0.8,0l-0.8,0.8c0,0,0,0-0.8,0
	c0,0,0,0,0-0.8v-0.8c0,0,0,0-0.8,0c0,0.8-0.8,1.6-1.6,0.8c0-0.8,0-0.8,0-1.6l0,0v-0.8c0,0,0-0.8-0.8-0.8c0,0-0.8,0-0.8,0.8
	c0,0,0,0.8-0.8,0.8c0,0,0,0-0.8,0l0,0l-0.8,0.8l0,0c0,0-0.8,0-0.8,0.8c0,0,0,0-0.8-0.8v-0.8v-0.8c0,0,0-0.8-0.8-0.8c0,0,0,0,0-0.8
	c0,0,0,0,0-0.8s0-0.8-0.8-1.6l-0.8,0.8c0,0,0,0.8-0.8,0.8c0,0-0.8,0-0.8-0.8s0-0.8-0.8-0.8c0,0,0,0-0.8,0c0,0,0,0,0,0.8v0.8
	c0,0.8,0,1.6-0.8,1.6c0,0-0.8,0-0.8-0.8l0,0c0-0.8-0.8-0.8-0.8-0.8s-0.8,0-0.8-0.8v-0.8v-0.8l0,0c0,0-0.8,0-0.8,0.8
	c0,0-0.8,0.8-0.8,0H408v-0.8c-0.8-0.8-0.8-0.8-0.8,0.8c0,0.8-0.8,0.8-0.8,0.8l0,0l0,0c0,0,0,0-0.8,0l0,0l0,0c0,0-6.4-0.8-14.4-0.8
	l-14.4-0.8l0,0H376l0,0c0,0,0,0-0.8-0.8h-0.8h-0.8l0,0l0,0l0,0h-0.8l0,0l0,0l-0.8-0.8l-4-1.6h-0.8h-0.8l-0.8-0.8h-0.8l0,0l-0.8,0.8
	l0,0l-0.8-0.8h-0.8l-0.8-0.8l-0.8-0.8H360h-0.8h-0.8l-0.8-0.8l-0.8,0.8H356h-0.8h-0.8l-0.8,1.6h-2.4v-1.6v-0.8l0,0h0.8h-1.6v-0.8
	v-0.8h-0.8l-0.8,1.6l0,0l0,0v-0.8H348l-0.8,0.8l-0.8,0.8l0,0h-0.8l0,0v-0.8v-0.8h-0.8l-0.8,0.8l-1.6,0.8v-0.8v-0.8h-0.8v0.8h-0.8
	l-0.8-0.8l0,0l0,0l-1.6,1.6l-1.6,0.8H336c0,0-18.4,2.4-29.6,2.4c-0.8,0-1.6,0-1.6,0l28.8,24.8c1.6,0,3.2,0,4.8,0
	c4.8,0,9.6,0,14.4,0.8c5.6,0,11.2,0,16,0.8c9.6,0.8,17.6,0,25.6,0.8c0.8,0,2.4,0,3.2,0c0,0,2.4,0,3.2,0c4.8,0,12-0.8,14.4-0.8
	s3.2,0,3.2,0c8.8,0,15.2-1.6,24-1.6c3.2-0.8,6.4,0.8,10.4,0h0.8c0.8,0,0.8,0,1.6,0c0.8,0,1.6,0,2.4,0s1.6-0.8,1.6-2.4
	C458.4,317.6,458.4,317.6,457.6,316.8z"/>
<path style="fill:#7F6644;" d="M408.8,294.4c0-0.8,0-1.6,0-2.4c0,0,0-0.8,0-1.6v-0.8v-0.8c0,0,0,0,0-0.8l0,0l0,0c0,0,0,0,0-0.8v-0.8
	l0,0c0-0.8,0-0.8-0.8-1.6c0,0,0,0-0.8-0.8l-0.8-0.8c0,0,0,0,0-0.8c0,0,0,0,0-0.8c0,0,0-0.8-0.8-0.8l0,0c0,0,0,0,0-0.8
	c0,0,0,0-0.8-0.8c0,0-0.8,0-0.8-0.8l-0.8-0.8c0,0,0-0.8-0.8-0.8c0,0,0,0-0.8,0l0,0c0,0,0-0.8-0.8-0.8c0,0,0,0,0-0.8v-0.8
	c0,0,0,0,0-0.8v-0.8V272c0,0,0,0,0-0.8c0,0,0,0,0-0.8l0,0v-0.8c0,0,0-0.8-0.8-1.6v-0.8v-0.8l0,0l0,0c0,0,0,0,0-0.8l0,0
	c0,0,0-0.8-0.8-0.8c0,0,0,0,0-0.8l0,0c0,0,0,0,0-0.8v-0.8v-0.8c0-0.8,0-0.8,0-1.6c0-0.8,0-0.8,0-1.6v-0.8v-0.8c0-0.8,0-0.8,0-1.6
	c0-0.8,0-0.8,0-1.6v-0.8V252c0-0.8,0-1.6,0-2.4s0-0.8,0-1.6c0-0.8,0-0.8,0-1.6c0-0.8-0.8-0.8-0.8-1.6c0-0.8,0-0.8,0-0.8v-0.8v-0.8
	c0-0.8,0-0.8,0-1.6c0-0.8,0-0.8-0.8-1.6v-0.8c0-0.8,0-0.8,0-1.6l-0.8-0.8c0,0,0-0.8-0.8-0.8c0,0,0,0,0-0.8v-0.8
	c0-0.8-0.8-1.6-0.8-2.4v-0.8c0-0.8,0-0.8,0-0.8v-0.8V228c0,0,0-0.8-0.8-0.8l0,0v-0.8h0.8c0.8-0.8,0.8-0.8,0.8-1.6c0-0.8,0-0.8,0-1.6
	v-0.8c0,0,0,0,0-0.8c0-0.8-0.8-0.8-0.8-1.6v-0.8v-0.8v-0.8v-0.8l-0.8-0.8c0,0,0,0,0-0.8c0,0,0-0.8-0.8-0.8c0-0.8,0-1.6-0.8-1.6
	L392,212c0,0,0-0.8-0.8-0.8c0,0,0,0-0.8,0c0,0,0,0,0-0.8c0,0,0-0.8-0.8-0.8l0,0c0-0.8-0.8-0.8-1.6-1.6c0,0,0-0.8-0.8-0.8l0,0
	c0-0.8-0.8-1.6-1.6-1.6l-0.8-0.8c0,0,0-0.8-0.8-0.8c0,0,0,0-0.8,0c0-0.8-0.8-1.6-1.6-1.6c0,0,0,0,0-0.8c0,0,0-0.8-0.8-0.8L380,200
	c-0.8,0-0.8-0.8-0.8-0.8l-0.8-0.8c0,0,0,0-0.8,0c0,0,0,0,0-0.8c0,0,0-0.8-0.8-0.8c0,0,0-0.8-0.8-0.8c0,0,0,0-0.8,0
	c-0.8-0.8-1.6-0.8-1.6-2.4l0,0c-0.8,0-1.6-0.8-1.6-0.8s0,0-0.8,0c0,0-0.8,0-0.8-0.8c-0.8,0-0.8-0.8-1.6-0.8l0,0c0,0,0-0.8-0.8-0.8
	s-0.8,0-0.8-0.8c-0.8-0.8-1.6-0.8-2.4-1.6c0,0,0,0-0.8,0h-0.8c0,0,0,0-0.8,0s-0.8-0.8-1.6-0.8H360l0,0l0,0c0,0,0,0-0.8,0h-0.8l0,0
	c0,0,0,0-0.8,0c0,0-0.8,0-1.6,0l0,0l-0.8-0.8c-0.8,0-0.8-0.8-1.6-0.8c-0.8,0-0.8,0-1.6,0h-0.8h-0.8c0,0,0,0-0.8,0s-0.8,0-0.8,0h-0.8
	l-0.8-0.8h-0.8h-0.8c-0.8,0-0.8,0-1.6,0c-0.8,0-1.6,0-1.6,0h-0.8h-0.8c0,0,0,0-0.8,0h-0.8c-0.8,0-0.8,0-0.8,0
	c-0.8,0-2.4-0.8-3.2-0.8h-0.8c0,0,0,0-0.8,0h-0.8c0,0,0,0-0.8,0h-2.4c-0.8,0-0.8,0-1.6,0c-0.8,0-0.8,0-1.6,0c-0.8,0-0.8,0-0.8,0
	s-1.6,0-2.4,0h-0.8c-0.8,0-0.8,0-1.6,0c-0.8,0-0.8,0-1.6,0c-0.8,0-1.6,0-1.6,0h-0.8h-0.8h-0.8h-1.6c-0.8,0-0.8,0-0.8,0h-0.8
	c0,0-1.6,0.8-2.4,0.8h-0.8c-0.8,0-0.8,0-1.6,0c-0.8,0-0.8,0-1.6,0c-0.8,0-1.6,0-1.6,0h-0.8h-0.8h-0.8c0,0-0.8,0-1.6,0
	c-0.8,0-1.6,0-1.6,0h-0.8h-0.8l0,0c0,0,0,0-0.8,0s-0.8,0-1.6,0c-0.8,0-0.8,0-1.6,0c-0.8,0-0.8,0-0.8,0c-0.8,0-1.6,0-1.6,0
	c-0.8,0-0.8,0-0.8,0c-0.8,0-2.4,0-3.2,0h-0.8c-0.8,0-0.8,0-1.6,0c0,0,0,0-0.8,0h-0.8c0,0,0,0-0.8,0s-0.8,0-1.6-0.8
	c-0.8,0-1.6-0.8-2.4-0.8s-0.8-0.8-1.6-0.8c-0.8,0-0.8,0-0.8-0.8l0,0h-0.8c0,0-0.8,0,0-0.8l0,0l0,0l0,0c0,0,0,0-0.8,0s-0.8,0-0.8-0.8
	c-0.8,0-0.8-0.8-1.6-0.8h-0.8c0,0,0,0,0-0.8l0,0h-0.8c0,0,0,0-0.8,0s-0.8,0-0.8,0l0,0h-0.8h-0.8c0,0,0,0,0-0.8l0,0
	c-0.8,0-1.6,0-2.4,0s-0.8,0-0.8-0.8c0-0.8,0-0.8,0-0.8s0,0.8-0.8,0c0,0-0.8,0-0.8-0.8l0,0h-0.8l0,0c-0.8,0-0.8,0-1.6,0
	c0,0,0,0-0.8,0s-0.8-0.8-0.8,0h-0.8c-0.8,0,0,0-0.8,0c0,0-0.8,0.8-0.8,0c-0.8,0-1.6,0-2.4,0s-1.6,0-1.6,0l0,0l0,0l0,0
	c0,0,0,0-0.8,0.8h-0.8h-0.8c0,0-0.8,0-1.6,0c0,0,0,0-0.8,0s-0.8,0.8-1.6,0.8h-0.8l0,0h-0.8c0,0,0,0.8-0.8,0c-0.8,0-0.8,0-0.8,0
	c-0.8,0-0.8,0-1.6,0.8c0,0,0,0-0.8,0s0,0-0.8,0h-0.8l0,0h-0.8h-0.8c0,0-0.8,0-0.8,0.8h-0.8c-0.8,0-0.8,0-1.6,0.8c0,0-0.8,0-0.8,0.8
	c-0.8,0.8-2.4,0.8-3.2,1.6h-0.8c0,0,0,0-0.8,0l0,0l0,0c0,0,0,0.8-0.8,0.8l0,0l0,0l0,0l-0.8,0.8l0,0c0,0,0,0-0.8,0h-0.8l0,0
	c0,0,0,0.8-0.8,0.8h-0.8h-0.8h-0.8l0,0l0,0c0,0,0,0-0.8,0h-0.8c-0.8,0.8-0.8,0.8-1.6,1.6c0,0,0,0-0.8,0s-0.8,0-1.6,0.8l0,0
	c0,0,0,0-0.8,0s-0.8,0-0.8,0h-0.8l0,0h-0.8l0,0l0,0l0,0l0,0l0,0c0,0,0,0-0.8,0l0,0l0,0c0,0,0,0-0.8,0.8l0,0h-0.8c0,0-0.8,0-0.8,0.8
	l-0.8,0.8h-0.8c0,0-0.8,0-0.8,0.8c-0.8,0.8-1.6,0.8-2.4,0.8c-0.8,0-0.8,0.8-1.6,0.8l0,0c0,0-0.8,0,0,0c0,0,0,0-0.8,0h-0.8l0,0
	c-0.8,0.8-0.8,0.8-1.6,1.6l0,0c0,0,0,0-0.8,0c0,0-0.8,0-0.8,0.8v0.8h-0.8c0,0-0.8,0,0,0c0,0,0,0-0.8,0.8l-0.8,0.8v0.8h-0.8
	c0,0-0.8,0.8-1.6,0c0,0,0,0,0-0.8v-0.8c0,0-0.8,0-0.8-0.8l0,0c0,0-0.8-0.8-1.6-0.8l0,0c-0.8,0-0.8,0-1.6,0l-0.8,0.8
	c-0.8,0-0.8,0.8-1.6,0.8l0,0c0,0.8-0.8,0.8-0.8,0.8s0,0-0.8,0.8v0.8v0.8l0,0l0,0l-0.8,0.8h-0.8h-0.8h-0.8c-0.8,0-0.8,0-1.6-0.8
	l-0.8-0.8c0,0-0.8,0-0.8-0.8c0,0,0-0.8-0.8-0.8s-0.8,0-1.6,0h-0.8c0,0-0.8,0-0.8,0.8c0,0.8-0.8,0.8-0.8,1.6v0.8c0,0,0,0,0,0.8v0.8
	c0,0.8,0,0.8-0.8,0.8c0,0,0,0.8,0,1.6c0,0,0,0,0,0.8c0,0,0,0,0,0.8c0,0,0,0,0,0.8c0,0.8,0,1.6,0,1.6l-0.8,0.8
	c-0.8,0.8-0.8,0.8-1.6,1.6l0,0c0,0-0.8,0-0.8,0.8c0,0,0,0,0,0.8c0,0.8,0,0.8-0.8,0.8c0,0-0.8,0.8-0.8,1.6c-0.8,0.8-0.8,2.4-1.6,3.2
	c0,0,0,0-0.8,0.8v0.8c0,0,0,0.8-0.8,0.8v0.8c0,0,0,0.8-0.8,0.8v0.8l0,0c0,0,0,0.8,0.8,0.8c0,0,0,0.8,0.8,0.8c0,0,0,0,0.8,0
	c0,0,0,0,0,0.8l0,0c0,0,0.8,0.8,0,0.8l0,0c0,0,0,0.8,0,1.6v0.8c0,0,0,0.8,0,1.6c0,0,0,0.8-0.8,0.8l0,0c0,0,0,0.8-0.8,0.8l-0.8,0.8
	c0,0.8-0.8,0.8-0.8,1.6l0,0l-0.8,0.8l0,0l0,0l-0.8,0.8l-0.8,0.8c-0.8,0.8-0.8,0.8-1.6,1.6l-0.8,0.8c0,0.8-0.8,0.8-0.8,1.6l-0.8,0.8
	c0,0,0,0.8-0.8,0.8h-0.8c0,0-0.8,0-0.8,0.8c0,0-0.8,0-0.8,0.8c0,0.8,0,0,0,0.8c0,0,0,0.8,0.8,0.8l0.8,0.8l0.8,0.8h0.8l0,0l0,0h0.8
	l0,0l0,0l0,0l0,0c0,0,0,0,0,0.8l0,0l0,0v0.8l0,0c0,0,0,0,0.8,0c0.8,0.8,1.6,0.8,2.4,0.8h0.8h0.8c0.8,0,0.8,0,0.8,0h0.8
	c0,0,0,0,0.8,0h0.8l0.8,0.8c0,0,0.8,0,0.8,0.8l0.8,0.8l0,0l0,0c0,0,0,0,0-0.8c0,0,0,0,0-0.8l0,0c0,0,0,0,0.8,0s0.8,0,1.6-0.8
	c0,0,0,0,0.8,0s0.8-0.8,1.6-0.8c0,0,0.8,0,0.8-0.8c0.8,0,0.8-0.8,1.6-0.8h0.8c0,0,0,0,0,0.8c0,0.8-0.8,1.6-1.6,2.4l0,0l0,0l-0.8,0.8
	l0,0c0,0,0,0-0.8,0.8v0.8v0.8l0,0l0,0c0,0,0,0,0,0.8l0,0c-0.8,0-1.6,0-1.6-0.8s-0.8-0.8-0.8-0.8c0,0.8,0,0.8,0,1.6h-0.8l0,0
	c0,0,0,0-0.8,0l0,0l0.8,0.8c0,0,0,0,0,0.8l0,0c0,0,0,0,0,0.8s0,0.8,0,0.8s0,0,0,0.8v0.8l0,0c0,0,0,0.8,0.8,0.8s0.8,0.8,1.6,0.8h0.8
	h0.8h0.8h0.8c0,0,0,0,0.8,0h0.8h0.8h0.8c0.8,0,0.8,0,0.8,0l0.8-0.8l0,0c0,0,0-0.8,0.8-0.8s0.8-0.8,1.6-0.8s0.8,0,0.8,0
	c0-0.8,0.8-0.8,0.8-0.8h0.8h0.8c0,0,0,0,0.8,0l0,0c0,0,0,0,0.8,0l0,0l0,0c0,0,0,0,0.8,0c0,0,0-0.8,0.8,0h0.8h0.8l0,0l0,0
	c0,0,0,0,0.8,0l0,0l0,0c0,0,0,0,0,0.8l0,0l0,0c0,0,0-0.8,0.8,0h0.8v0.8c0,0,0,0,0.8,0c0,0,0,0,0,0.8v0.8v0.8c0,0,0.8,0,0.8-0.8
	s0-0.8,0-0.8s0,0,0,0.8v0.8v-0.8l0,0v0.8l0,0c0-0.8,0-0.8,0.8,0l0,0c0,0,0-0.8,0-1.6c0,0,0,0,0.8,0l0,0l0,0l0,0l0,0v-0.8v-0.8V256
	l0,0l0,0l0,0c0,0,0,0,0-0.8l0,0l0,0h0.8l0,0c0,0.8,0,0.8,0,0.8v0.8l0,0c0,0,0-0.8,0-1.6c0-0.8,0-0.8,0-0.8s0.8,0,0,0.8
	c0,0,0,0,0,0.8l0,0l0,0l0,0l0,0l0,0c0-0.8,0-0.8,0-1.6l0,0c0,0,0.8,0,0.8,0.8l0,0l0,0l0,0l-0.8-0.8v-0.8l0,0v-0.8v0.8l0.8,0.8l0,0
	l0,0v-0.8c0-0.8,0-0.8,0-0.8s0,0,0.8,0v0.8v0.8l0,0v-0.8l0,0l0,0v-0.8c0,0,0-0.8,0,0l0,0V252c0,0,0.8,0,0.8,0.8l0,0l0,0
	c0,0,0,0,0.8,0l0,0v0.8c0,0,0,0,0-0.8V252c0,0,0,0,0.8,0c0,0,0,0,0,0.8s0,0.8,0,0.8v-0.8c0,0,0,0,0-0.8l0,0l0,0c0,0,0,0-0.8,0l0,0
	c0,0,0,0,0.8,0s0,0.8,0.8,0l0,0v0.8v0.8l0,0l0,0l0,0c0,0,0,0,0.8-0.8V252c0,0,0,0,0.8,0l0,0l0,0l0,0l0,0l0,0c0,0,0,0,0-0.8
	s0-0.8,0.8-0.8v0.8c0,0.8,0,0.8,0,0.8s0,0,0-0.8s0-0.8,0-1.6l0,0l0,0l0,0c0,0,0,0,0,0.8v0.8c0,0,0,0,0-0.8v-0.8c0,0,0,0,0.8,0h0.8
	c0-0.8,0-0.8,0.8-0.8s0.8-0.8,1.6-0.8l0,0c0,0,0,0,0.8,0c0,0,0,0,0.8,0c0,0,0,0,0.8,0l0,0l0,0c0,0,0,0,0.8,0c0,0,0,0,0.8,0h0.8l0,0
	h0.8l0,0v-0.8c0,0,0.8,0,0.8,0.8c0,0,0,0,0.8,0s0.8,0,0.8,0s0,0,0.8,0c0,0,0,0,0.8,0l0.8-0.8c0,0,0.8,0,0.8,0.8l0,0c0,0,0,0,0.8,0
	c0,0,0,0,0.8,0c0,0,0-0.8,0.8-0.8c0,0,0.8,0,0.8,0.8l0,0c0,0,0.8,0,0.8-0.8c0,0,0,0,0.8,0h0.8l0,0h0.8c0,0,0,0,0.8,0.8l0,0v0.8
	c0,0,0,0,0,0.8l0,0c0,0,0,0.8,0.8,0.8l0,0c0,0,0,0.8-0.8,0.8c0,0.8,0,0.8,0,0.8c0,0.8,0,1.6-0.8,2.4c0,0.8,0,0.8-0.8,1.6v0.8
	c0,0,0,0,0,0.8l0,0c0,0,0,0.8,0,1.6c0,0.8,0,0.8,0,1.6v0.8c0,0.8,0,0.8,0,1.6c0,0.8,0,0.8,0,1.6v0.8c0,0.8-0.8,1.6-0.8,1.6
	s0,0.8-0.8,0.8c0,0,0,0,0,0.8s0,0.8-0.8,1.6c0,0.8,0,1.6-0.8,1.6c0,0.8,0,0.8-0.8,1.6l0,0c0,0.8-0.8,0.8-0.8,1.6l0,0c0,0,0,0,0,0.8
	c0,0-0.8,0-0.8,0.8c0,0,0,0.8-0.8,0.8l0,0l-0.8,0.8l0,0l0,0l0,0c0,0,0,0,0,0.8c-0.8,0.8-1.6,1.6-2.4,2.4l-0.8,0.8l-0.8,0.8l-0.8,0.8
	c0,0,0,0-0.8,0.8l-0.8,0.8c0,0,0,0.8-0.8,0.8c0,0,0,0.8-0.8,0.8l-0.8,1.6l-0.8,0.8c0,0,0,0.8-0.8,0.8c-0.8,0.8-0.8,1.6-1.6,1.6
	s-0.8,0.8-1.6,0.8s-1.6,0-2.4,0c-0.8,0-1.6,0-1.6,0h-0.8c-0.8,0-0.8,0-1.6,0h-0.8c-0.8,0-0.8,0-1.6,0.8c-0.8,0-0.8,0.8-1.6,0.8
	l-0.8,0.8c-0.8,0-0.8,0.8-1.6,0.8l-0.8,0.8l0,0l-0.8,0.8l0,0c0,0,0,0,0,0.8s0,0.8-0.8,0.8h-0.8c0,0-0.8,0-0.8,0.8h-0.8l0,0v0.8v0.8
	v0.8c0,0,0,0-0.8,0.8l-0.8,0.8l0,0c0,0,0.8-0.8,1.6-0.8c0,0,0.8,0,0.8-0.8c0.8,0,1.6-0.8,3.2-0.8c0,0,0,0,0,0.8
	c-0.8,0.8-0.8,0.8-1.6,1.6l0,0l0,0c0,0,0,0,0,0.8c0.8,0,1.6-0.8,2.4-0.8h0.8c0.8,0,1.6,0,1.6-0.8l0,0c0,0,0.8,0,0,0.8l0,0
	c0,0,0,0-0.8,0.8c0,0,0,0,0,0.8v0.8l0,0c0,0,0.8,0,0.8-0.8c0.8,0,1.6,0,2.4,0c0.8,0,0.8,0,1.6,0c0,0,0.8,0,0.8,0.8l0.8,0.8h0.8
	c0.8,0,0.8,0,0.8,0h0.8l0,0h0.8h0.8c0,0,0.8-0.8,0.8,0h0.8c0,0,0,0,0.8-0.8c0.8,0,0.8,0,1.6,0s1.6,0,2.4,0h0.8h2.4
	c0.8,0,1.6,0,1.6,0l0.8-0.8c0,0,0.8,0,0.8-0.8c0,0,0.8,0,0.8-0.8c0,0,0.8,0,0.8-0.8v-0.8c0,0,0,0,0.8,0h0.8l0,0c0,0,0-0.8,0.8,0l0,0
	l0,0l0.8-0.8l0,0l0,0l0,0c0.8-0.8,0,0,0.8,0l0,0l0,0v-0.8l0,0h0.8l0,0c0,0,0-0.8,0.8-1.6c0,0,0,0,0.8,0l0,0l0.8-0.8v0.8l0,0v-0.8
	c0,0,0.8-0.8,0.8-1.6v0.8l0.8-0.8l0,0h0.8c0,0,0,0,0.8,0l0,0c0,0,0,0,0.8,0l0,0l0.8-0.8l0.8-0.8c0,0,0,0,0.8,0l0.8-0.8v-0.8l0,0h0.8
	c0,0,0.8,0,0.8-0.8c0,0,0,0,0-0.8h0.8c0,0,0-0.8,0.8-0.8c0,0,0,0,0.8,0v-0.8l0,0l0,0c0.8,0,0.8,0,0.8-0.8c0,0,0,0,0.8,0h0.8
	c0,0,0,0,0-0.8c0,0,0,0,0.8,0s0.8,0,0.8-0.8c0,0,0-0.8,0.8-0.8c0,0,0,0,0.8,0s0.8,0,0.8,0l0,0l0,0l0,0c0,0,0-0.8,0.8,0
	c0,0,0,0,0-0.8l0,0h0.8v-0.8c0.8-0.8,0.8-0.8,1.6-0.8l0,0c0,0,0,0,0-0.8v-0.8c0.8,0,0.8,0,0.8-0.8c0,0,0,0,0-0.8
	c0.8,0,0.8-0.8,0.8-0.8l0,0l0,0l0,0c0,0,0.8,0,0,0V280c0-0.8,0-0.8,0-0.8l0,0v-0.8c0,0,0,0,0.8,0c0,0,0,0,0-0.8c0,0,0.8,0,0.8-0.8
	l0,0c0,0,0,0,0-0.8c0.8-0.8,1.6-1.6,1.6-2.4c0,0,0-0.8,0.8-0.8c0,0,0,0,0.8-0.8c0-0.8,0-0.8,0.8-0.8l0,0l0,0c0,0,0-0.8,0.8-0.8
	c0,0,0,0,0.8,0l0,0c0-0.8,0-0.8,0.8-0.8s0.8-0.8,1.6-1.6l0,0c0.8,0,1.6,0.8,1.6,1.6l0,0l0,0c0,0,0.8,0,0.8,0.8c0,0,0,0,0,0.8l0,0
	c0,0,0,0,0.8,0v0.8c0,0,0,0.8,0.8,0.8h0.8l0,0c0,0,0,0,0,0.8l0,0l0.8,0.8l0,0c0,0.8,0.8,0.8,0.8,0.8h0.8l0.8,0.8l0.8,0.8v0.8l0,0
	c0,0,0.8,0,0.8,0.8c0,0,0,0,0,0.8c0,0,0,0,0.8,0h0.8c0.8,0,0.8,0.8,1.6,0.8l0.8,0.8l0.8,0.8c0.8,0.8,1.6,1.6,1.6,2.4
	c0,0,0.8,0.8,0.8,0c0,0-0.8,0,0,0c0.8,0.8,0.8,0.8,1.6,0.8c0,0,0.8,0,0.8,0.8c0,0,0.8,0.8,0.8,1.6l0,0c0,0.8,0,1.6,0,2.4h-0.8
	c-0.8,0-0.8,0-1.6,0c-0.8,0-0.8,0-1.6,0c-0.8,0-0.8,0-0.8,0h-0.8h-0.8c0,0-0.8,0-1.6,0c0,0-0.8,0-0.8,0.8h-0.8l-0.8,0.8l0,0l0,0l0,0
	c-0.8,0.8-0.8,1.6-1.6,2.4c-0.8,0.8-0.8,0.8-1.6,1.6l-0.8,0.8h0.8l0,0c0.8,0,0.8-0.8,1.6-0.8l0,0l0,0c-0.8,0.8-0.8,0.8-1.6,1.6
	l-0.8,0.8l0,0l0,0c0.8-0.8,1.6-0.8,2.4-0.8h0.8c0,0,0,0,0,0.8c-0.8,0-1.6,0.8-1.6,0.8l0,0c0.8,0,0.8,0,1.6-0.8l0,0l0,0l0,0
	c0,0,0,0,0.8,0c0,0,0,0,0-0.8c0,0,0-0.8,0,0c0,0,0,0,0.8,0s1.6-0.8,3.2,0c0,0,0.8,0,1.6,0c0.8,0,0.8,0,1.6,0c0.8,0,0.8,0,1.6,0
	c0.8,0,0.8,0,1.6,0c0.8,0,0.8,0,1.6-0.8h0.8c0.8,0,0.8,0,0.8,0l0,0h0.8c0,0,0,0,0.8,0h0.8h0.8h0.8c0.8,0,0.8,0,0.8,0l0,0
	c0,0,0,0,0.8,0h0.8l0,0l0,0l0,0c0,0,0-0.8,0.8-0.8h0.8c0,0,0-0.8,0,0h0.8c0,0,0.8,0,0.8-0.8c0,0,0,0,0.8,0c0,0,0.8,0,1.6-0.8h0.8
	c0,0,0,0,0.8-0.8c0,0,0,0,0-0.8v-0.8c0,0,0.8,0,0,0c0-0.8,0-0.8,0.8-1.6c0-0.8,0-1.6,0-1.6l0,0c0,0,0,0,0.8,0c0,0,0,0,0-0.8
	s0-0.8,0-0.8l0,0c0,0,0,0,0-0.8l0,0c0,0,0,0,0.8,0v-0.8l0,0c0,0,0-0.8,0.8-0.8c0,0,0,0,0.8,0c0,0,0,0,0-0.8v-0.8
	c0-0.8,0.8-0.8,0.8-0.8l0,0c0,0,0,0,0.8,0l0,0v-0.8l0,0l0,0V280c0,0,0,0,0-0.8c0,0,0,0,0-0.8l0,0c0,0,0,0,0-0.8v-0.8
	c0-0.8,0-0.8-0.8-0.8l-0.8-0.8v-0.8l0,0c0,0,0,0,0-0.8v-0.8l0,0c0,0,0-0.8-0.8-0.8c0-0.8-0.8-0.8-0.8-1.6v-0.8v-0.8l-0.8-0.8l0,0
	v-0.8v-0.8c0-0.8,0-0.8-0.8-1.6l0,0l-0.8-0.8l0,0c0,0,0,0,0-0.8l0,0c0,0,0,0,0-0.8s0-0.8-0.8-1.6l0,0c0,0,0,0,0-0.8v-0.8l0,0l0,0
	v0.8l0,0l0,0l0,0l0,0l0,0c0,0,0,0,0.8,0h0.8c0,0,0,0,1.6,0c0.8,0,0.8,0,0.8,0h0.8l0,0h0.8l0,0l0,0l0,0c0.8,0,0.8,0,0.8,0h0.8l0,0
	l0,0c0,0,0,0,0-0.8c0,0,0,0,0.8,0h0.8l0,0l0,0l0,0l0,0l0,0l0,0l0,0c0,0,0,0.8,0,0c0,0,0,0,0.8,0c0,0,0.8,0,0.8,0.8h0.8l0,0l0,0l0,0
	l0,0h0.8l0,0l0,0l0,0c0,0,0,0,0.8,0l0,0l0,0l0.8-0.8v0.8v0.8c0,0,0,0,0.8-0.8l0.8-0.8l0,0v0.8l0,0l0,0v-0.8c0-0.8,0-0.8,0.8-0.8
	c0,0,0,0,0.8,0v0.8h0.8l0,0c0,0,0-0.8,0.8-0.8l0,0c0,0,0,0,0,0.8v0.8c0,0,0.8,0,0.8-0.8s0.8-0.8,1.6-0.8h0.8c0,0,0.8,0,0.8,0.8l0,0
	c0,0,0,0,0,0.8s0,1.6,0,1.6l0,0v0.8l0,0l0,0c0,0,0,0-0.8,0l0,0v0.8l0,0v0.8c0,0,0,0,0.8,0c0,0,0.8,0,0,0l0,0c0,0.8,0,0.8,0,1.6l0,0
	l0,0l0,0l0,0c0,0,0,0,0,0.8c0,0,0,0,0,0.8l0,0l0,0c0,0.8,0,0.8,0.8,1.6c0,0,0,0,0,0.8v0.8c0,0,0,0,0,0.8c0,0,0,0.8,0,1.6l0,0v0.8
	l0,0c0,0.8,0,0.8,0,0.8v0.8c0,0.8,0,0.8,0,1.6c0,0,0,0,0,0.8v0.8c0,0,0,0,0,0.8s0,0.8,0,0.8s0,0,0,0.8v0.8l0,0l0,0c0,0,0,0,0,0.8
	l0,0l0,0c0,0,0,0,0,0.8v0.8l0,0l0,0c0,0,0,0,0,0.8s0,0.8,0,0.8s0,0,0,0.8l0,0l0,0l0,0l0,0c0,0,0,0-0.8,0h-0.8h-0.8l0,0
	c0,0-0.8,0-2.4,0c0,0-0.8,0-1.6,0c-0.8,0-2.4,0-3.2,0c0,0,0,0-0.8,0h-0.8c-0.8,0-1.6,0-1.6,0c-0.8,0-1.6,0.8-1.6,0.8s-0.8,0-0.8,0.8
	H300c-0.8,0.8-2.4,0.8-3.2,2.4c-0.8,0-0.8,0-0.8,0.8v0.8v0.8l0,0c0-0.8,0.8-0.8,0.8-1.6l0,0v0.8c0,0,0,0.8-0.8,0.8l-0.8,0.8l0.8-0.8
	c0.8-0.8,1.6-0.8,1.6-0.8c0,0.8-0.8,0.8-0.8,1.6l0,0c0,0,0,0,0.8,0c0,0,0.8,0,0.8-0.8c0.8,0,0.8-0.8,0.8-1.6c0,0,0.8,0,0.8,0.8
	s0,0.8-0.8,1.6c0,0,0,0,0.8,0s0.8-0.8,0.8-0.8l0,0c0.8,0,0.8,0,1.6,0.8l0,0l-0.8,0.8c0,0,0,0,0.8,0l0,0c0,0,0,0,0-0.8l0,0
	c0,0,0,0,0.8,0c0,0,0.8,0,1.6,0c0,0,0,0,0.8,0c0,0,0.8,0,0.8,0.8c0,0,0,0,0.8,0h0.8l0,0h0.8c0.8,0,0.8-0.8,1.6,0c4,0,0.8-1.6,4.8,0
	c0,0,0,0,0-0.8c0,0,0,0,0.8,0c0,0,0,0,0.8,0h0.8c0.8,0,0.8,0,1.6,0h0.8c0.8,0,0.8,0,0.8,0h0.8c0.8,0,0.8,0,1.6,0h0.8h0.8h0.8
	c0,0,0.8,0,1.6,0h0.8h0.8h0.8c0,0,0,0,0.8,0h0.8h0.8h0.8c0,0,0,0,0.8,0l0,0h0.8c-0.8,0-0.8,0,0-1.6c0,0,0-0.8,0.8-1.6
	c0,0,0-0.8,0.8-0.8c0,0,0,0,0-0.8c0,0,0-0.8,0.8-0.8c0,0,0,0,0-0.8l0.8-0.8c0,0,0.8,0,0.8-0.8c0,0,0-0.8,0.8-0.8l0.8-0.8h0.8l0,0
	v-0.8c0-0.8,0-0.8,0.8-1.6c0,0,0-0.8,0.8-0.8c0,0,0,0,0.8,0l0,0c0,0,0,0,0-0.8c0,0,0,0,0-0.8l0,0c0,0,0,0,0-0.8l0,0
	c0,0,0.8,0,0.8-0.8c0,0,0,0,0.8-0.8c0,0,0,0,0.8-0.8l0.8-0.8l0,0l0.8,0.8c0,0,0,0,0-0.8c0,0,0,0,0-0.8v-0.8c0,0,0.8-0.8,0.8,0l0,0
	l0,0v-0.8l0,0l0,0l0,0c0,0,0,0,0.8,0l0,0l0.8-0.8v-0.8c0,0,0,0,0.8-0.8h0.8l0,0c0-0.8,0-0.8,0.8-0.8l0,0l0,0c0,0,0.8,0,0.8-0.8
	l0.8-0.8v-0.8h0.8l0,0c0,0,0-0.8,0.8,0h0.8c0.8,0,0.8,0,1.6-0.8l0,0c0,0,0,0,0.8-0.8s0.8,0,0.8-0.8s0.8-0.8,0.8-0.8s0-0.8,0.8-0.8
	h0.8c0,0,0,0,0-0.8s0-0.8,0-0.8s0,0,0.8,0h0.8c0,0,0.8,0,0.8-0.8c0,0,0,0,0.8,0s0.8,0,0.8,0.8v0.8c0,0,0,0,0,0.8c0,0,0,0,0,0.8
	c0,0,0,0,0,0.8c0,0,0,0,0,0.8v0.8c0,0,0.8-0.8,0.8,0v0.8v0.8c0.8,0,0.8,0,0.8,0.8l0,0c0,0,0,0,0,0.8c0,0,0,0.8,0.8,0.8l0,0l0,0v0.8
	h0.8c0,0,0,0.8,0.8,0.8l0,0v0.8l0,0c0,0,0.8,0,0.8,0.8l0,0l0,0h0.8l0,0l0,0l0,0l0,0h0.8l0,0l0,0l0,0c0,0,0,0,0,0.8
	c0.8,0,0.8,0.8,1.6,0l0,0c0,0,0.8,0,0.8,0.8l0,0h0.8c0,0,0.8,0,0.8,0.8c0,0,0,0,0.8,0s0.8,0,1.6,0c0,0,0,0,0.8,0h0.8c0,0,0,0,0.8,0
	s0.8,0,0.8,0h0.8h0.8l0,0l0,0h0.8c0,0,0,0,0.8,0c0,0,0,0,0.8,0c0,0,0,0,0.8,0s1.6,0,2.4,0.8l0,0l0,0c0,0,0,0.8,0.8,0.8l0,0l0,0v0.8
	c0,0,0,0.8,0,0l0,0v0.8v0.8l0,0l-0.8,0.8c0,0,0,0-0.8,0c0,0,0,0-0.8,0c0,0,0,0-0.8,0s-0.8,0-1.6,0h-0.8h-0.8h-0.8h-0.8
	c0,0,0,0-0.8,0c0,0-0.8,0-0.8,0.8c0,0,0,0-0.8,0s-0.8,0-0.8,0.8l0,0c0,0,0,0-0.8,0c0,0,4.8-4.8-0.8,0c0,0,0,0-0.8,0.8l0,0l-0.8,0.8
	c0,0-0.8,0.8-1.6,1.6l0,0c0,0.8-0.8,0.8-0.8,1.6c0,0,0.8,0,0.8-0.8l0,0l0,0c0.8,0,0.8-0.8,1.6-0.8l0,0c0,0,0,0,0,0.8
	c-0.8,0.8-0.8,0.8-0.8,0.8l0,0c-0.8,0,0,0.8-0.8,0.8c0,0,0,0,0.8,0l0,0c0.8,0,0.8-0.8,1.6-0.8c0,0,0,0,0.8,0c0,0,0,0,0.8,0l0,0l0,0
	c0,0,0,0.8-0.8,0.8s-0.8,0.8-1.6,0.8c0,0,0,0,0.8,0c0,0,0,0,1.6-0.8c0.8,0,0.8,0,0.8,0s0.8,0,1.6,0c0.8,0,0.8,0,0.8,0
	c0.8,0,1.6,0,1.6,0s0,0,0.8,0h0.8c0,0,0,0,1.6,0c0.8,0,1.6,0,1.6,0s0,0,0.8,0h0.8h2.4c0,0,0.8,0,1.6,0c0.8,0,0.8,0,0.8,0h0.8
	c0.8,0,0.8,0,0.8,0l0,0l0,0l0,0v-0.8v0.8l0,0c0,0,0,0,0.8,0c0,0,0,0,0.8,0c0,0,0,0,0.8-0.8h0.8c0,0,0,0,0.8-0.8l0.8-0.8
	c0,0,0,0,0.8-0.8h0.8l0.8-0.8h0.8l0,0c0.8,0,0.8-0.8,1.6-0.8c0,0,0.8,0,0.8-0.8c0,0,0,0,0.8,0c0,0,0.8,0,0.8-0.8l0.8-0.8l0,0h0.8
	V280c0,0,0,0,0-0.8C408,295.2,408.8,295.2,408.8,294.4C408.8,295.2,408.8,294.4,408.8,294.4z"/>
<path style="fill:#584528;" d="M408,291.2C408,290.4,408,290.4,408,291.2c0-0.8,0-0.8,0-1.6c0,0,0,0,0-0.8l0,0l0,0c0,0,0,0,0-0.8
	v-0.8l0,0c0-0.8,0-0.8-0.8-1.6c0,0,0,0-0.8-0.8l-0.8-0.8c0,0,0,0,0-0.8c0,0,0,0,0-0.8c0,0,0-0.8-0.8-0.8l0,0c0,0,0,0,0-0.8
	c0,0,0,0-0.8-0.8c0,0-0.8,0-0.8-0.8l-0.8-0.8c0,0,0-0.8-0.8-0.8c0,0,0,0-0.8,0l0,0c0,0,0-0.8-0.8-0.8c0,0,0,0,0-0.8v-0.8
	c0,0,0,0,0-0.8v-0.8v-0.8c0,0,0,0,0-0.8c0,0,0,0,0-0.8l0,0v-0.8c0,0,0-0.8-0.8-1.6V268v-0.8l0,0l0,0c0,0,0,0,0-0.8l0,0
	c0,0,0-0.8-0.8-0.8c0,0,0,0,0-0.8l0,0c0,0,0,0,0-0.8v-0.8v-0.8c0-0.8,0-0.8,0-1.6c0-0.8,0-0.8,0-1.6v-0.8v-0.8c0-0.8,0-0.8,0-1.6
	c0-0.8,0-0.8,0-1.6v-0.8v-0.8c0-0.8,0-1.6,0-2.4s0-0.8,0-1.6c0-0.8,0-0.8,0-1.6c0-0.8-0.8-0.8-0.8-1.6c0-0.8,0-0.8,0-0.8V244v-0.8
	c0-0.8,0-0.8,0-1.6c0-0.8,0-0.8-0.8-1.6v-0.8c0-0.8,0-0.8,0-1.6l-0.8-0.8c0,0,0-0.8-0.8-0.8c0,0,0,0,0-0.8v-0.8
	c0-0.8-0.8-1.6-0.8-2.4v-0.8c0-0.8,0-0.8,0-0.8v-0.8v-0.8c0,0,0-0.8-0.8-0.8l0,0v-0.8h0.8c0.8-0.8,0.8-0.8,0.8-1.6
	c0-0.8,0-0.8,0-1.6v-0.8c0,0,0,0,0-0.8c0-0.8-0.8-0.8-0.8-1.6V220v-0.8v-0.8v-0.8l-0.8-0.8c0,0,0,0,0-0.8c0,0,0-0.8-0.8-0.8
	c0-0.8,0-1.6-0.8-1.6l-0.8-0.8c0,0,0-0.8-0.8-0.8c0,0,0,0-0.8,0c0,0,0,0,0-0.8c0,0,0-0.8-0.8-0.8l0,0c0-0.8-0.8-0.8-1.6-1.6
	c0,0,0-0.8-0.8-0.8l0,0c0-0.8-0.8-1.6-1.6-1.6l-0.8-0.8c0,0,0-0.8-0.8-0.8c0,0,0,0-0.8,0c0-0.8-0.8-1.6-1.6-1.6c0,0,0,0,0-0.8
	c0,0,0-0.8-0.8-0.8l-0.8-0.8c-0.8,0-0.8-0.8-0.8-0.8l-0.8-0.8c0,0,0,0-0.8,0c0,0,0,0,0-0.8c0,0,0-0.8-0.8-0.8c0,0,0-0.8-0.8-0.8
	c0,0,0,0-0.8,0c-0.8-0.8-1.6-0.8-1.6-2.4l0,0c-0.8,0-1.6-0.8-1.6-0.8s0,0-0.8,0c0,0-0.8,0-0.8-0.8c-0.8,0-0.8-0.8-1.6-0.8l0,0
	c0,0,0-0.8-0.8-0.8s-0.8,0-0.8-0.8c-0.8-0.8-1.6-0.8-2.4-1.6c0,0,0,0-0.8,0h-0.8c0,0,0,0-0.8,0s-0.8-0.8-1.6-0.8h-0.8l0,0l0,0
	c0,0,0,0-0.8,0h-0.8l0,0c0,0,0,0-0.8,0c0,0-0.8,0-1.6,0l0,0l-0.8-0.8c-0.8,0-0.8-0.8-1.6-0.8c-0.8,0-0.8,0-1.6,0h-0.8h-0.8
	c0,0,0,0-0.8,0s-0.8,0-0.8,0h-0.8l-0.8-0.8h-0.8h-0.8c-0.8,0-0.8,0-1.6,0c-0.8,0-1.6,0-1.6,0h-0.8h-0.8c0,0,0,0-0.8,0h-0.8
	c-0.8,0-0.8,0-0.8,0c-0.8,0-2.4-0.8-3.2-0.8h-0.8c0,0,0,0-0.8,0h-0.8c0,0,0,0-0.8,0h-2.4c-0.8,0-0.8,0-1.6,0c-0.8,0-0.8,0-1.6,0
	c-0.8,0-0.8,0-0.8,0s-1.6,0-2.4,0h-0.8c-0.8,0-0.8,0-1.6,0c-0.8,0-0.8,0-1.6,0c-0.8,0-1.6,0-1.6,0h-0.8h-0.8h-0.8h-1.6
	c-0.8,0-0.8,0-0.8,0h-0.8c0,0-1.6,0.8-2.4,0.8h-0.8c-0.8,0-0.8,0-1.6,0c-0.8,0-0.8,0-1.6,0c-0.8,0-1.6,0-1.6,0h-0.8h-0.8h-0.8
	c0,0-0.8,0-1.6,0c-0.8,0-1.6,0-1.6,0h-0.8h-0.8l0,0c0,0,0,0-0.8,0s-0.8,0-1.6,0c-0.8,0-0.8,0-1.6,0c-0.8,0-0.8,0-0.8,0
	c-0.8,0-1.6,0-1.6,0c-0.8,0-0.8,0-0.8,0c-0.8,0-2.4,0-3.2,0h-0.8c-0.8,0-0.8,0-1.6,0c0,0,0,0-0.8,0h-0.8c0,0,0,0-0.8,0
	s-0.8,0-1.6-0.8c-0.8,0-1.6-0.8-2.4-0.8s-0.8-0.8-1.6-0.8c-0.8,0-0.8,0-0.8-0.8l0,0h-0.8c0,0-0.8,0,0-0.8l0,0l0,0l0,0c0,0,0,0-0.8,0
	s-0.8,0-0.8-0.8c-0.8,0-0.8-0.8-1.6-0.8h-0.8c0,0,0,0,0-0.8l0,0h-0.8c0,0,0,0-0.8,0s-0.8,0-0.8,0l0,0h-0.8h-0.8c0,0,0,0,0-0.8l0,0
	c-0.8,0-1.6,0-2.4,0s-0.8,0-0.8-0.8c0-0.8,0-0.8,0-0.8s0,0.8-0.8,0c0,0-0.8,0-0.8-0.8l0,0h-0.8l0,0c-0.8,0-0.8,0-1.6,0
	c0,0,0,0-0.8,0s-0.8-0.8-0.8,0h-0.8c-0.8,0,0,0-0.8,0c0,0-0.8,0.8-0.8,0c-0.8,0-1.6,0-2.4,0s-1.6,0-1.6,0l0,0l0,0l0,0
	c0,0,0,0-0.8,0.8h-0.8h-0.8c0,0-0.8,0-1.6,0c0,0,0,0-0.8,0s-0.8,0.8-1.6,0.8h-0.8l0,0h-0.8c0,0,0,0.8-0.8,0c-0.8,0-0.8,0-0.8,0
	c-0.8,0-0.8,0-1.6,0.8c0,0,0,0-0.8,0s0,0-0.8,0h-0.8l0,0h-0.8h-0.8c0,0-0.8,0-0.8,0.8h-0.8c-0.8,0-0.8,0-1.6,0.8c0,0-0.8,0-0.8,0.8
	c-0.8,0.8-2.4,0.8-3.2,1.6h-0.8c0,0,0,0-0.8,0l0,0l0,0c0,0,0,0.8-0.8,0.8l0,0l0,0l0,0l-0.8,0.8l0,0c0,0,0,0-0.8,0h-0.8l0,0
	c0,0,0,0.8-0.8,0.8h-0.8h-0.8h-0.8l0,0l0,0c0,0,0,0-0.8,0h-0.8c-0.8,0.8-0.8,0.8-1.6,1.6c0,0,0,0-0.8,0s-0.8,0-1.6,0.8l0,0
	c0,0,0,0-0.8,0s-0.8,0-0.8,0h-0.8l0,0h-0.8l0,0l0,0l0,0l0,0l0,0c0,0,0,0-0.8,0l0,0l0,0c0,0,0,0-0.8,0.8l0,0h-0.8c0,0-0.8,0-0.8,0.8
	l-0.8,0.8h-0.8c0,0-0.8,0-0.8,0.8c-0.8,0.8-1.6,0.8-2.4,0.8c-0.8,0-0.8,0.8-1.6,0.8l0,0c0,0-0.8,0,0,0c0,0,0,0-0.8,0h-0.8l0,0
	c-0.8,0.8-0.8,0.8-1.6,1.6l0,0c0,0,0,0-0.8,0l0,0l100.8,85.6v-0.8l0,0c0,0,0,0,0.8,0l0,0v-0.8l0,0l0,0v-0.8c0,0,0,0,0-0.8
	c0,0,0,0,0-0.8l0,0c0,0,0,0,0-0.8v-0.8c0-0.8,0-0.8-0.8-0.8l-0.8-0.8v-0.8l0,0c0,0,0,0,0-0.8v-0.8l0,0c0,0,0-0.8-0.8-0.8
	c0-0.8-0.8-0.8-0.8-1.6v-0.8v-0.8l-0.8-0.8l0,0V264v-0.8c0-0.8,0-0.8-0.8-1.6l0,0l-0.8-0.8l0,0c0,0,0,0,0-0.8l0,0c0,0,0,0,0-0.8
	s0-0.8-0.8-1.6l0,0c0,0,0,0,0-0.8V256l0,0l0,0v0.8l0,0l0,0l0,0l0,0l0,0c0,0,0,0,0.8,0h0.8c0,0,0,0,1.6,0c0.8,0,0.8,0,0.8,0h0.8l0,0
	h0.8l0,0l0,0l0,0c0.8,0,0.8,0,0.8,0h0.8l0,0l0,0c0,0,0,0,0-0.8c0,0,0,0,0.8,0h0.8l0,0l0,0l0,0l0,0l0,0l0,0l0,0c0,0,0,0.8,0,0
	c0,0,0,0,0.8,0c0,0,0.8,0,0.8,0.8h0.8l0,0l0,0l0,0l0,0h0.8l0,0l0,0l0,0c0,0,0,0,0.8,0l0,0l0,0l0.8-0.8v0.8v0.8c0,0,0,0,0.8-0.8
	l0.8-0.8l0,0v0.8l0,0l0,0V256c0-0.8,0-0.8,0.8-0.8c0,0,0,0,0.8,0v0.8h0.8l0,0c0,0,0-0.8,0.8-0.8l0,0c0,0,0,0,0,0.8v0.8
	c0,0,0.8,0,0.8-0.8s0.8-0.8,1.6-0.8h0.8c0,0,0.8,0,0.8,0.8l0,0c0,0,0,0,0,0.8s0,1.6,0,1.6l0,0v0.8l0,0l0,0c0,0,0,0-0.8,0l0,0v0.8
	l0,0v0.8c0,0,0,0,0.8,0c0,0,0.8,0,0,0l0,0c0,0.8,0,0.8,0,1.6l0,0l0,0l0,0l0,0c0,0,0,0,0,0.8c0,0,0,0,0,0.8l0,0l0,0
	c0,0.8,0,0.8,0.8,1.6c0,0,0,0,0,0.8v0.8c0,0,0,0,0,0.8c0,0,0,0.8,0,1.6l0,0v0.8l0,0c0,0.8,0,0.8,0,0.8v0.8c0,0.8,0,0.8,0,1.6
	c0,0,0,0,0,0.8v0.8c0,0,0,0,0,0.8s0,0.8,0,0.8s0,0,0,0.8v0.8l0,0l0,0c0,0,0,0,0,0.8l0,0l0,0c0,0,0,0,0,0.8v0.8l0,0l0,0
	c0,0,0,0,0,0.8s0,0.8,0,0.8s0,0,0,0.8l0,0l0,0l0,0l0,0c0,0,0,0-0.8,0h-0.8h-0.8l0,0c0,0-0.8,0-2.4,0c0,0-0.8,0-1.6,0
	c-0.8,0-1.6,0-3.2,0l12,10.4l0,0h0.8c0.8,0,0.8,0,0.8,0h0.8c0.8,0,0.8,0,1.6,0h0.8h0.8h0.8c0,0,0.8,0,1.6,0h0.8h0.8h0.8
	c0,0,0,0,0.8,0h0.8h0.8h0.8c0,0,0,0,0.8,0l0,0h0.8c-0.8,0-0.8,0,0-1.6c0,0,0-0.8,0.8-1.6c0,0,0-0.8,0.8-0.8c0,0,0,0,0-0.8
	c0,0,0-0.8,0.8-0.8c0,0,0,0,0-0.8l0.8-0.8c0,0,0.8,0,0.8-0.8c0,0,0-0.8,0.8-0.8l0.8-0.8h0.8l0,0v-0.8c0-0.8,0-0.8,0.8-1.6
	c0,0,0-0.8,0.8-0.8c0,0,0,0,0.8,0l0,0c0,0,0,0,0-0.8c0,0,0,0,0-0.8l0,0c0,0,0,0,0-0.8l0,0c0,0,0.8,0,0.8-0.8c0,0,0,0,0.8-0.8
	c0,0,0,0,0.8-0.8l0.8-0.8l0,0l0.8,0.8c0,0,0,0,0-0.8c0,0,0,0,0-0.8v-0.8c0,0,0.8-0.8,0.8,0l0,0l0,0v-0.8l0,0l0,0l0,0c0,0,0,0,0.8,0
	l0,0l0.8-0.8v-0.8c0,0,0,0,0.8-0.8h0.8l0,0c0-0.8,0-0.8,0.8-0.8l0,0l0,0c0,0,0.8,0,0.8-0.8l0.8-0.8v-0.8h0.8l0,0c0,0,0-0.8,0.8,0
	h0.8c0.8,0,0.8,0,1.6-0.8l0,0c0,0,0,0,0.8-0.8s0.8,0,0.8-0.8s0.8-0.8,0.8-0.8s0-0.8,0.8-0.8h0.8c0,0,0,0,0-0.8s0-0.8,0-0.8
	s0,0,0.8,0h0.8c0,0,0.8,0,0.8-0.8c0,0,0,0,0.8,0s0.8,0,0.8,0.8v0.8c0,0,0,0,0,0.8c0,0,0,0,0,0.8c0,0,0,0,0,0.8c0,0,0,0,0,0.8v0.8
	c0,0,0.8-0.8,0.8,0v0.8v0.8c0.8,0,0.8,0,0.8,0.8l0,0c0,0,0,0,0,0.8c0,0,0,0.8,0.8,0.8l0,0l0,0v0.8h0.8c0,0,0,0.8,0.8,0.8l0,0v0.8
	l0,0c0,0,0.8,0,0.8,0.8l0,0l0,0h0.8l0,0l0,0l0,0l0,0h0.8l0,0l0,0l0,0c0,0,0,0,0,0.8c0.8,0,0.8,0.8,1.6,0l0,0c0,0,0.8,0,0.8,0.8l0,0
	h0.8c0,0,0.8,0,0.8,0.8c0,0,0,0,0.8,0s0.8,0,1.6,0c0,0,0,0,0.8,0h0.8c0,0,0,0,0.8,0s0.8,0,0.8,0h0.8h0.8l0,0l0,0h0.8c0,0,0,0,0.8,0
	c0,0,0,0,0.8,0c0,0,0,0,0.8,0s1.6,0,2.4,0.8l0,0l0,0c0,0,0,0.8,0.8,0.8l0,0l0,0v0.8c0,0,0,0.8,0,0l0,0v0.8v0.8l0,0l-0.8,0.8
	c0,0,0,0-0.8,0c0,0,0,0-0.8,0c0,0,0,0-0.8,0s-0.8,0-1.6,0h-0.8h-0.8h-0.8h-0.8c0,0,0,0-0.8,0c0,0-0.8,0-0.8,0.8c0,0,0,0-0.8,0
	s-0.8,0-0.8,0.8l0,0c0,0,0,0-0.8,0c0,0,4.8-4.8-0.8,0c0,0,0,0-0.8,0.8l0,0l-0.8,0.8c0,0-0.8,0.8-1.6,1.6l0,0c0,0.8-0.8,0.8-0.8,1.6
	c0,0,0.8,0,0.8-0.8l0,0l0,0c0.8,0,0.8-0.8,1.6-0.8l0,0c0,0,0,0,0,0.8c-0.8,0.8-0.8,0.8-0.8,0.8l0,0c-0.8,0,0,0.8-0.8,0.8
	c0,0,0,0,0.8,0l0,0c0.8,0,0.8-0.8,1.6-0.8c0,0,0,0,0.8,0c0,0,0,0,0.8,0l0,0l0,0c0,0,0,0.8-0.8,0.8s-0.8,0.8-1.6,0.8c0,0,0,0,0.8,0
	c0,0,0,0,1.6-0.8c0.8,0,0.8,0,0.8,0s0.8,0,1.6,0c0.8,0,0.8,0,0.8,0c0.8,0,1.6,0,1.6,0s0,0,0.8,0h0.8c0,0,0,0,1.6,0
	c0.8,0,1.6,0,1.6,0s0,0,0.8,0h0.8h2.4c0,0,0.8,0,1.6,0c0.8,0,0.8,0,0.8,0h0.8c0.8,0,0.8,0,0.8,0l0,0l0,0l0,0v-0.8v0.8l0,0
	c0,0,0,0,0.8,0c0,0,0,0,0.8,0c0,0,0,0,0.8-0.8h0.8c0,0,0,0,0.8-0.8l0.8-0.8c0,0,0,0,0.8-0.8h0.8l0.8-0.8h0.8l0,0
	c0.8,0,0.8-0.8,1.6-0.8c0,0,0.8,0,0.8-0.8c0,0,0,0,0.8,0c0,0,0.8,0,0.8-0.8l0.8-0.8l0,0h0.8V280c0,0,0,0,0-0.8v-0.8c0,0,0,0,0-0.8
	s0-1.6,0-2.4C408.8,292,408,291.2,408,291.2z"/>
<g>
</g>
<g>
</g>
<g>
</g>
<g>
</g>
<g>
</g>
<g>
</g>
<g>
</g>
<g>
</g>
<g>
</g>
<g>
</g>
<g>
</g>
<g>
</g>
<g>
</g>
<g>
</g>
<g>
</g>
</svg>
